<?xml version="1.0" encoding="utf-8"?>
<!-- Generator: Adobe Illustrator 23.0.0, SVG Export Plug-In . SVG Version: 6.00 Build 0)  -->
<svg version="1.1" id="图层_1" xmlns="http://www.w3.org/2000/svg" xmlns:xlink="http://www.w3.org/1999/xlink" x="0px" y="0px"
	 viewBox="0 0 200 200" style="enable-background:new 0 0 200 200;" xml:space="preserve">
<style type="text/css">
	.st0{fill:#0B0B09;}
	.st1{fill:#7AA84C;}
	.st2{fill:#FDFDFD;}
	.st3{fill:#527E25;}
	.st4{fill:#BDC260;}
	.st5{fill:#F7FB91;}
</style>
<!-- 添加白色背景 -->
<rect width="200" height="200" fill="#FFFFFF"/>
<g>
	<path class="st0" d="M95.4,200c-9-0.1-17-1.3-25-3.2c-4.3-1-8.1-3.4-11.7-6.1c-2.3-1.8-3.6-4.5-4.9-7.2c-0.3-0.7-0.6-1.2-1.3-1.6
		c-2.9-1.6-5.4-3.9-7.6-6.6c-5.8-7-5.3-16.4-0.6-23.3c0.3-0.5,1.1-1,0.9-1.6c-0.3-0.7-1.1-0.4-1.7-0.4c-6.8-0.5-13.2,1.2-19.4,4
		c-3.8,1.7-7.6,3.5-11.4,5.2c-0.5,0.2-1.1,0.4-1.7,0.5c-0.8,0-1.4-0.5-1.7-1.3c-0.3-0.8,0.2-1.2,0.7-1.6c0.6-0.5,1.1-1.1,1.8-1.4
		c6.8-3,13.3-6.8,20.6-8.4c4.8-1.1,9.7-1.5,14.6-0.5c1,0.2,1.4-0.1,1.8-1.1c1-2.8,1.3-5.7,1.5-8.6c0.2-5.5-0.1-11.1-0.7-16.6
		c-0.1-0.7-0.1-1.3-1-0.9c-9.5,3.5-18.9,2.1-28.4-0.5c-5.1-1.4-9.9-3.4-14.2-6.9c-1-0.8-2-1.8-2.8-2.8c-2.5-3-1.7-7.1,1.7-8.7
		c5.8-2.6,11.4-5.4,16.8-8.8c5.6-3.5,10.3-8.2,15.5-12.4c1.2-1,1.6-2,1.1-3.9c-2-8,0.1-15,4.6-21.3c2.5-3.5,5.6-6.2,9.2-8.3
		c1-0.6,1.3-1.2,1-2.3c-0.9-4-2.4-5.6-5.4-5.9c-1.5-0.2-2.9-0.5-4.3-0.9c-1.5-0.4-2.8-1.2-4-2.4c-2.4-2.5-2.4-6.1-0.1-8.7
		c1.5-1.7,3.5-2.8,5.5-3.6c1.8-0.7,3.7-1.5,5.5-2.2c1.3-0.5,1.9-1.5,1.7-3c-0.2-1.7-0.3-3.3-0.5-5c-0.2-1.8-0.2-3.6,0.3-5.3
		C53.5,0.1,59.5-2,64,2.2c3.4,3.2,5.5,7.5,7,12c2,5.8,3,11.9,3.8,18c0.3,2.4,0.9,4.8,1,7.2c0.1,1.5,0.8,1.8,1.9,2
		c5.8,1.1,10.9,3.8,15.3,8.1c2.7,2.6,4.8,5.8,6.2,9.5c0.4,1,0.6,1.1,1.2,0.1c5.7-9.9,14.4-14.2,24.5-15.2c1.5-0.2,2-0.8,2.4-2.3
		c2-9.1,4.3-18.1,8.5-26.3c1.8-3.5,3.8-6.7,6.9-8.9c2.6-1.8,5.3-2.3,8.1-0.7c2.7,1.5,3.6,4.3,3.6,7.5c0,1.2-0.1,2.5-0.1,3.7
		c0,1.1-0.1,2.2-0.1,3.3c0,1.7,0.7,3,2.2,3.7c0.9,0.4,1.8,0.8,2.7,1.2c1,0.5,2.1,1,3.1,1.6c1.6,1,3,2.3,3,4.5c0,2.3-1.4,3.7-3.1,4.8
		c-1.5,0.9-3,1.5-4.7,1.9c-5.6,1.5-8.3,5.9-9.7,11.7c-0.2,0.9,0.5,1.1,0.9,1.5c4,3.4,7.1,7.6,8.7,13c1.9,6.4,1.1,12.5-1.9,18.3
		c-0.6,1.1-0.6,1.5,0.6,2c9.9,3.6,19.3,8.8,28.3,14.6c1.4,0.9,3,1.5,4.7,1.9c2.8,0.7,5.6,1.7,8.4,2.2c1.1,0.2,2.2,0.8,2.5,2.2
		c0.3,1.5-0.7,2.5-1.7,3.1c-3.4,2.3-6.8,4.6-10.3,6.6c-8.1,4.8-16.6,8.3-25.5,10.5c-2.1,0.5-4.2,1-6.3,1.6c-2.5,0.8-3.8,2.9-4.6,5.4
		c-0.7,1.9-0.7,4-1.3,6c-0.8,3-1.5,5.9-2.4,8.9c-0.3,1-0.1,1.4,0.8,1.7c2.8,0.8,5.1,2.7,7.8,3.6c2.6,0.9,5.2,1.2,7.9,0.4
		c2.8-0.7,5.5-1.4,8.1-2.9c1.3-0.8,2.6-0.3,3.2,0.9c0.5,1.2,0.1,2.3-1.2,3.3c-1.8,1.3-3.9,2.1-6,2.5c-3.6,0.7-7.2,2.1-11,1
		c-2.7-0.8-5.2-1.7-7.7-3.2c-3.7-2.2-3.7-2.1-5.1,2.1c-0.6,1.8-1.2,3.5-1.9,5.3c-0.6,1.7-0.8,3.5-0.9,5.4c-0.1,6.6-2.1,12-7.8,15
		c-1.7,0.9-3.4,2-5.2,2.6c-0.6,0.2-0.9,0.7-1.3,1.2c-3.2,4.3-7.2,7.4-11.7,9.6C109.1,199.6,101.9,199.8,95.4,200z M103.1,105.5
		c0.4,0.3,0.8,0.3,1.2,0.1c2,0.1,4.1,0.2,6.1,0.3c0.3,0.3,0.6,0.3,0.9,0c3.4,0.1,6.7,0.7,10.1,0.1c0.6-0.1,1.2-0.1,1-1.1
		c0.2-1.9,0.3-3.8,0.6-5.6c0.2-1.1-0.1-1.5-1.1-1.8c-2.5-0.6-5-1.2-7.4-2.2c-6.8-3-12.3-7.7-15.4-15.3c-0.1-0.3-0.2-0.8-0.5-0.9
		c-0.5-0.1-0.6,0.5-0.8,0.9C91.6,91.1,82,96.1,70.4,96.8c-2.1,0.1-2.1,0-1.8,2.4c0.1,0.6,0.1,1.3,0.2,1.9c0.2,2.5,0.3,2.7,2.6,2.9
		c3.4,0.2,6.7,0.3,10.1,0.4c5.8,0.2,11.7,0.5,17.5,0.7C100.4,105.3,101.7,105.4,103.1,105.5z M100.2,126.3c0.4,0.3,0.8,0.3,1.2,0.1
		c1.3,0.1,2.5,0.2,3.8,0.2c0.5,0.3,1,0.3,1.5,0.1c1,0.1,1.9,0.1,2.9,0.2c0.6,0.4,1.2,0.4,1.8,0.2c0.8,0.1,1.5,0.1,2.3,0.2
		c0.5,0.4,1,0.3,1.5,0.1c1,0.1,1.9,0.1,2.9,0.2c0.2,0.3,0.4,0.3,0.6,0.1c0.8,0.2,1.2-0.1,1.2-1.1c0.3-0.3,0.3-0.6,0.1-1
		c0.1-0.4,0.1-0.8,0.2-1.3c0.3-0.3,0.3-0.6,0.1-1c0-0.3,0.1-0.6,0.1-0.9c0.3-0.3,0.3-0.6,0.2-1c0-0.3,0.1-0.6,0.1-0.9
		c0.3-0.3,0.3-0.6,0.1-1c0.1-0.4,0.1-0.8,0.2-1.3c0.3-0.3,0.3-0.6,0.1-1c0.1-0.4,0.1-0.8,0.2-1.3c0.3-0.3,0.3-0.6,0.1-1
		c0.1-0.4,0.1-0.8,0.2-1.3c0.3-0.3,0.3-0.6,0.1-1c0.2-0.9-0.3-1.1-0.9-1.1c-1.3-0.1-2.6-0.1-4-0.2c-0.6-0.3-1.2-0.3-1.8-0.1
		c-1.9-0.1-3.9-0.2-5.8-0.2c-0.5-0.3-1-0.3-1.5-0.1c-1.7-0.1-3.5-0.2-5.2-0.3c-0.4-0.3-0.8-0.3-1.2-0.1c-1.5-0.1-2.9-0.2-4.4-0.2
		c-0.4-0.3-0.8-0.3-1.2-0.1c-1.2-0.1-2.5-0.3-3.7-0.1c0,0-0.1-0.1-0.1-0.1c-7-0.7-14.1-0.3-21.1-1c-0.7-0.1-0.8,0.4-0.7,1
		c0.5,4.7,0.9,9.4,1.3,14.1c0.1,0.9,0.3,1.2,1.2,1.2c3.8,0,7.5,0,11.3,0c1.5,0.1,2.9,0.2,4.4,0.2c0.7,0.3,1.4,0.3,2.1,0.1
		c1.4,0.1,2.7,0.2,4.1,0.2c0.4,0.3,0.8,0.3,1.2,0.1C97.1,126.1,98.6,126.2,100.2,126.3z M80.5,130.6c-2.5-0.4-5.1-0.1-7.6-0.1
		c-0.8,0-1,0.5-0.9,1.3c0.2,1.8,0.4,3.6,0.6,5.3c0.3,1.9,1.2,3.4,2.8,4.3c4.9,3.5,10.2,6,15.3,9c1.8,1,3.5,1.1,5.4,0.4
		c6.3-2.3,12.5-4.9,18.7-7.8c1.1-0.5,1.8-1.3,2.2-2.4c0.4-1.1,0.8-2.3,1-3.6c0.3-0.2,0.4-0.5,0.2-0.9c0-0.2,0.1-0.4,0.1-0.6
		c0.2-0.2,0.3-0.4,0.1-0.7c0.1-0.6,0.5-1.2,0.1-1.8c-0.5-0.4-1.1-0.4-1.7-0.2c-1-0.1-1.9-0.2-2.9-0.2c-0.5-0.3-1-0.3-1.5-0.1
		c-1-0.1-1.9-0.1-2.9-0.2c-0.3-0.3-0.6-0.3-0.9-0.1c-1.2-0.1-2.4-0.2-3.5-0.2c-0.6-0.4-1.2-0.3-1.8-0.1c-1.1-0.1-2.1-0.1-3.2-0.2
		c-0.8-0.4-1.6-0.4-2.4-0.1c-1.1-0.1-2.1-0.1-3.2-0.2c-0.9-0.4-1.8-0.4-2.7-0.1c-1.3-0.2-2.7-0.2-4.1-0.2c-0.6-0.3-1.2-0.3-1.8-0.1
		C84.2,130.6,82.4,130.4,80.5,130.6z M185.9,105.4c-0.7-0.2-1.5-0.4-2.2-0.7c-4.8-2.6-9.5-5.2-14.3-7.9c-5.5-3-11.1-5.9-17.1-7.7
		c-0.9-0.3-1.6-0.2-2.4,0.5c-5.7,5.2-12.3,7.9-19.6,8.3c-1,0-1.3,0.6-1.3,1.5c-0.1,1.9-0.2,3.8-0.5,5.7c-0.9,6.6-1.9,13.2-2.9,19.7
		c-0.8,5.4-1.5,10.7-3,15.9c-0.8,2.8-2.1,5.2-4.7,6.4c-6.7,3.1-13.5,6.1-20.5,8.5c-3.1,1.1-6,0.9-8.9-0.7c-4.4-2.5-8.8-5-13.2-7.4
		c-5.1-2.7-8.1-6.7-8.3-13.3c-0.3-6.5-0.9-13-2-19.4c-1-5.7-1.7-11.4-2.3-17.2c-0.1-0.9-0.5-1-1.2-1.1c-2.5-0.5-5-1.2-7.2-2.5
		c-4.6-2.8-9.2-5.6-12.4-10.4c-0.5-0.8-1-0.7-1.6-0.2c-2.6,2.4-5.6,4.1-8.3,6.4c-5.5,4.5-11.4,8.2-17.6,11.4c-2.1,1.1-4.2,2-6.4,2.9
		c-1.8,1-1.9,1.1-0.3,2.7c1.9,2,4.1,3.5,6.5,4.6c8.3,3.9,17,5.6,26,5.1c2.6-0.2,5.2-0.9,7.7-2c0.8-0.3,1.2-0.9,1-1.9
		c-0.3-2.4-0.4-4.8-1-7.2c-0.3-1.3-0.7-2.7-0.1-4.1c1-0.9,1.9-1.7,3.3-1.2c1.6,0.5,2.2,1.5,2.4,4.2c0.5,5.3,0.8,10.7,1.4,16
		c0.7,6.1,1.3,12.3,0.7,18.5c-0.4,4.4-1.2,8.7-3.9,12.2c-1,1.4-2,2.8-3,4.2c-2.4,3.7-3.3,7.8-2,12.2c0.9,3.1,2.8,5.4,5.1,7.4
		c5.2,4.8,11.2,5.8,17.3,3.2c6.7-2.9,13.6-4.3,20.7-5c6.6-0.6,12.8,1.3,18.5,5.1c6.6,4.4,13.6,4.2,20.7,2c4-1.3,6.4-4.3,7.4-8.8
		c0.7-3.5,0-6.8-1.4-9.9c-1.4-3.1-2.6-6.2-2.9-9.7c-0.3-3-0.1-6.1,0.2-9.1c0.6-5.7,1-11.4,2.2-17.1c0.7-3.5,2.9-4.2,5.3-1.8
		c0.2,0.9,0.1,1.8,0,2.7c-1.3,7.2-2.1,14.5-2.3,21.9c0,2,0,2,1.5,1.2c0.5-0.3,1.1-0.6,1.7-0.6c2.8,0,3.4-2.1,3.8-4.5
		c0-0.3,0.1-0.5,0.2-0.8c1.1-4.9,2.2-9.9,3.5-14.8c1-3.6,3-6.3,6.7-6.8c6.4-0.9,12.5-2.9,18.5-5.3c5.7-2.3,11-5.3,15.8-9.5
		c0.3-0.2,0.7-0.3,0.6-0.8c-0.1-0.4-0.5-0.5-0.8-0.5C187.8,106.1,186.9,105.6,185.9,105.4z M68.8,92.7c7.9-0.3,15.4-3,21.6-9.7
		c8.1-8.9,8-21.8-0.3-30.3c-4.5-4.5-9.8-6.8-15.8-7.5c-9.9-1.1-18.8,1.5-26,9.4c-8.7,9.6-8,22.9,1.6,31.4
		C55.1,90.8,61.5,92.6,68.8,92.7z M128.3,48.3c-7.1,0-13.3,2-18.8,6.7c-9.3,8-9.9,21.5-1.4,30.4c10.1,10.6,28.3,11,38.9,0.9
		c9-8.6,9.1-21.6,0.3-30.4C141.8,50.6,135.2,48.4,128.3,48.3z M94.7,194.8c4.9,0.2,9.8-0.3,14.6-1.4c3.7-0.9,7.3-2.2,10.1-5.2
		c0.3-0.3,0.9-0.6,0.6-1.1c-0.2-0.4-0.7-0.2-1.1-0.2c-3.2-0.1-6.2-0.7-9.1-2.1c-3-1.5-5.8-3.3-8.9-4.6c-5.2-2.4-10.7-2.5-16.1-1.2
		c-3.5,0.8-7.3,0.9-10.5,2.6c-4.1,2.1-8.2,3.1-12.6,2.8c-0.3,0-0.7-0.2-0.9,0.2c-0.2,0.4,0.2,0.7,0.4,1c1.7,2.8,4.2,4.3,7,5.2
		C76.8,193.6,85.7,194.7,94.7,194.8z M59.3,26.3c-1.2,0-2.2-0.5-2.5-1.8c-0.3-1.2,0.5-1.9,1.4-2.4c2.6-1.5,5.3-2.8,8.3-3.1
		c0.9-0.1,1.1-0.4,0.8-1.3c-0.8-2.8-1.8-5.4-3.1-7.9c-1.1-1.9-2.3-3.8-4.1-5c-1-0.6-1.9-0.5-2.6,0.5C56.3,7.1,56,9,56.2,11.1
		c0.3,2.2,0.6,4.4,0.5,6.6c0,2.7-1.2,4.5-3.4,5.6c-1.6,0.8-3.3,1.4-4.9,2c-1.7,0.7-3.6,1.2-5,2.6c-1.6,1.4-1.4,3,0.4,4.1
		c0.9,0.5,1.8,0.7,2.8,0.8c3.7,0.4,7.3,1.3,9.4,5.2c0.7,1.2,1.2,2.5,1.5,3.9c0.2,0.8,0.5,1.1,1.2,0.7c0.3-0.2,0.6-0.2,1-0.3
		c3.4-1,6.9-1.6,10.4-1.6c0.4,0,1.2,0.3,1.1-0.7c-0.3-2.4-0.7-4.7-1-7c-0.1-0.9-0.5-1-1.2-0.9c-2.5,0.5-4.8,1.4-7,2.9
		c-0.5,0.4-1,0.8-1.7,1c-1.2,0.4-2.2-0.1-2.7-1.2c-0.5-1.1-0.2-2.1,0.9-2.9c3-2.1,6.1-3.6,9.6-4.2c0.9-0.1,1.4-0.5,1-1.6
		C69,25.5,69,25.1,69,24.8c-0.1-1.2-0.7-1.6-1.7-1.3c-1.7,0.4-3.3,0.8-4.9,1.6C61.4,25.5,60.5,26.3,59.3,26.3z M149.7,17
		C149.7,17,149.7,17,149.7,17c0.1-1.2,0.1-2.5,0-3.7c0-1.4,0-3-1.4-3.7c-1.5-0.8-2.6,0.3-3.7,1.3c-0.2,0.1-0.3,0.3-0.4,0.4
		c-2.8,2.9-4.5,6.5-6.2,10.2c-0.6,1.3-0.2,1.5,0.9,1.4c2-0.1,4.1-0.1,6.1,0.6c1.3,0.4,2,1.3,1.7,2.7c-0.3,1.4-1.3,1.8-2.5,1.6
		c-1.2-0.1-2.4-0.4-3.6-0.6c-3.4-0.6-4.9,0.3-5.8,3.4c-0.3,1-0.1,1.4,0.9,1.4c2.4-0.1,4.7,0.3,7,0.6c1.5,0.2,2.4,1.3,2.2,2.6
		c-0.2,1.2-1.5,2.2-2.8,1.9c-2.6-0.5-5.1-0.6-7.7-0.6c-0.8,0-1.3,0.2-1.5,1.1c-0.4,1.7-0.8,3.5-1.3,5.2c-0.2,0.7-0.1,1.1,0.6,1.1
		c3.5,0.4,6.9,1.5,10.1,3c0.8,0.4,1.2,0.2,1.4-0.7c0.1-0.5,0.3-0.9,0.5-1.4c1.6-4.9,4.6-8.2,8.8-10.2c1.8-0.9,3.7-1.4,5.5-2.1
		c0.7-0.3,1.6-0.4,1.6-1.3c0-0.8-0.9-1-1.5-1.3c-1.6-0.8-3.2-1.4-4.7-2.2c-3-1.6-4.7-4.1-4.5-8C149.8,19,149.7,18,149.7,17z
		 M141,154.8c-0.1-0.1-0.1-0.4-0.2-0.4c-0.8-0.2-1.6-0.1-2.3,0.3c-0.6,0.4-0.1,1,0,1.4c0.1,0.5,0.3,0.9,0.5,1.3
		c0.1,0.3,0.4,0.5,0.5,0.3C140,156.8,140.5,155.8,141,154.8z"/>
	<path class="st1" d="M139.7,123.8c-2.5-2.4-4.6-1.7-5.3,1.8c-1.1,5.6-1.6,11.3-2.2,17.1c-0.3,3-0.5,6.1-0.2,9.1
		c0.3,3.5,1.6,6.6,2.9,9.7c1.4,3.1,2.1,6.4,1.4,9.9c-0.9,4.5-3.3,7.6-7.4,8.8c-7.1,2.2-14.1,2.4-20.7-2c-5.7-3.8-11.9-5.7-18.5-5.1
		c-7.1,0.7-14,2.1-20.7,5c-6.1,2.6-12.1,1.6-17.3-3.2c-2.2-2-4.2-4.3-5.1-7.4c-1.3-4.4-0.4-8.5,2-12.2c0.9-1.4,1.9-2.8,3-4.2
		c2.7-3.5,3.5-7.8,3.9-12.2c0.6-6.2,0-12.4-0.7-18.5c-0.6-5.3-0.9-10.7-1.4-16c-0.2-2.6-0.8-3.6-2.4-4.2c-1.4-0.4-2.4,0.3-3.3,1.2
		c-1.2-0.3-2.3-0.9-3.7-0.6c-2.6,0.5-5,1.7-7.6,2.4c-5.2,1.5-10.4,2.7-15.8,3.3c-3.9,0.4-7.7,0.7-11.4-1.1c-0.5-0.3-1.3-0.3-1.4-1.2
		c2.1-1,4.3-1.8,6.4-2.9c6.1-3.3,12.1-6.9,17.6-11.4c2.7-2.2,5.7-4,8.3-6.4c0.6-0.5,1.1-0.6,1.6,0.2c3.2,4.8,7.8,7.6,12.4,10.4
		c2.3,1.4,4.7,2,7.2,2.5c0.6,0.1,1.1,0.3,1.2,1.1c0.6,5.8,1.3,11.5,2.3,17.2c1.1,6.4,1.7,12.9,2,19.4c0.3,6.6,3.3,10.6,8.3,13.3
		c4.4,2.4,8.8,4.9,13.2,7.4c2.9,1.6,5.9,1.8,8.9,0.7c6.9-2.5,13.7-5.4,20.5-8.5c2.5-1.2,3.8-3.6,4.7-6.4c1.5-5.2,2.2-10.5,3-15.9
		c1-6.6,2-13.2,2.9-19.7c0.3-1.9,0.4-3.8,0.5-5.7c0.1-1,0.4-1.5,1.3-1.5c7.4-0.4,14-3.1,19.6-8.3c0.8-0.7,1.5-0.8,2.4-0.5
		c6,1.8,11.6,4.6,17.1,7.7c4.8,2.6,9.5,5.3,14.3,7.9c0.7,0.4,1.5,0.5,2.2,0.7c0,0.4-0.3,0.6-0.7,0.8c-2.4,1.1-4.8,2.1-7.3,2.9
		c-6.2,1.9-12.6,2.3-18.9,3.9c-5.6,1.4-10.9,3.4-15.5,7.2C142.2,121.2,141,122.6,139.7,123.8z M61,159.9c-1.2,0-2.2,0.2-3.2,0.5
		c-4,1.4-4.7,5.4-1.9,8.9c2.4,2.9,9.3,2.9,11.6,1.1c2-1.6,2.4-4,1.1-6.3C66.7,161.1,63.9,160.2,61,159.9z M121.3,174.8
		c2.3,0,4.8-1,6.5-2.6c2.7-2.5,2.1-6-1.1-7.4c-2.8-1.2-5.5-0.6-8,1.1c-1.9,1.3-2.6,3.2-2.1,4.9C117.2,172.7,119.6,174.7,121.3,174.8
		z"/>
	<path class="st2" d="M68.8,92.7c-7.3-0.1-13.6-1.9-19-6.7c-9.6-8.5-10.3-21.8-1.6-31.4c7.2-7.9,16.1-10.5,26-9.4
		c5.9,0.7,11.3,3,15.8,7.5c8.4,8.5,8.5,21.4,0.3,30.3C84.2,89.8,76.7,92.4,68.8,92.7z M74.9,69.4c0-3-1.3-4.9-3.9-5.9
		c-2.1-0.8-4.4-0.2-5.7,1.7c-1.9,2.7-1.4,7.9,0.9,10.2c1.9,1.9,4.3,1.9,6.2-0.1C74.1,73.6,74.8,71.5,74.9,69.4z"/>
	<path class="st2" d="M128.3,48.3c6.9,0.1,13.5,2.3,19,7.7c8.8,8.7,8.7,21.8-0.3,30.4c-10.5,10.1-28.8,9.7-38.9-0.9
		c-8.5-8.9-7.9-22.5,1.4-30.4C115,50.3,121.2,48.3,128.3,48.3z M126.1,72c0.1,1.5,0.2,3.2,1.1,4.7c1.6,2.9,4.6,3.5,6.9,1.2
		c2.3-2.3,3.2-5.3,2.8-8.7c-0.2-1.7-1-3-2.4-3.9C130.5,63.1,126.1,66.4,126.1,72z"/>
	<path class="st3" d="M94.7,194.8c-9-0.1-17.9-1.2-26.6-4.1c-2.8-0.9-5.3-2.5-7-5.2c-0.2-0.3-0.6-0.5-0.4-1c0.2-0.4,0.6-0.2,0.9-0.2
		c4.4,0.3,8.6-0.7,12.6-2.8c3.3-1.7,7-1.8,10.5-2.6c5.5-1.3,10.9-1.2,16.1,1.2c3,1.4,5.9,3.1,8.9,4.6c2.9,1.5,6,2,9.1,2.1
		c0.4,0,0.9-0.2,1.1,0.2c0.2,0.6-0.3,0.8-0.6,1.1c-2.8,3-6.4,4.3-10.1,5.2C104.4,194.5,99.6,194.9,94.7,194.8z"/>
	<path class="st4" d="M99,105.2c-5.8-0.2-11.7-0.5-17.5-0.7c-3.4-0.1-6.7-0.2-10.1-0.4c-2.3-0.2-2.4-0.4-2.6-2.9
		c-0.1-0.6-0.1-1.3-0.2-1.9c-0.3-2.4-0.3-2.3,1.8-2.4C82,96.1,91.6,91.1,98,79.9c0.2-0.3,0.3-0.9,0.8-0.9c0.4,0.1,0.4,0.6,0.5,0.9
		c3.2,7.6,8.6,12.3,15.4,15.3c2.3,1,4.9,1.5,7.4,2.2c1,0.2,1.3,0.6,1.1,1.8c-0.3,1.9-0.4,3.7-0.6,5.6c-1-2.2-2.7-3.3-4.9-3.6
		c-1.7-0.3-3.4-0.5-5.1-0.6c-4.7-0.4-8.9,1.6-13,3.7C99.2,104.5,98.9,104.7,99,105.2z"/>
	<path class="st5" d="M118.5,132.9c0.4,0.6,0,1.2-0.1,1.8c-0.3,0.2-0.5,0.4-0.1,0.7c0,0.2-0.1,0.4-0.1,0.6c-0.4,0.2-0.4,0.5-0.2,0.9
		c-0.2,1.2-0.5,2.4-1,3.6c-0.4,1.1-1.2,1.9-2.2,2.4c-6.1,2.8-12.3,5.5-18.7,7.8c-1.9,0.7-3.6,0.7-5.4-0.4c-5.1-3-10.4-5.5-15.3-9
		c0.1-0.6,0.4-1.1,0.7-1.6c1.5-3,3-6.1,4.4-9.1c1.8-0.2,3.7-0.1,5.5,0.1c0.6,0.6,1.2,0.5,1.8,0.1c1.4,0,2.7,0,4.1,0.2
		c0.9,0.7,1.8,0.5,2.7,0.1c1.1,0.1,2.1,0.1,3.2,0.2c0.8,0.6,1.6,0.5,2.4,0.1c1.1,0.1,2.1,0.1,3.2,0.2c0.6,0.6,1.2,0.5,1.8,0.1
		c1.2,0.1,2.4,0.2,3.5,0.2c0.3,0.4,0.6,0.5,0.9,0.1c1,0.1,1.9,0.1,2.9,0.2c0.5,0.6,1,0.5,1.5,0.1c1,0.1,1.9,0.2,2.9,0.2
		C117.4,133.4,118,133.1,118.5,132.9z"/>
	<path class="st5" d="M94.3,126c-1.4-0.1-2.7-0.2-4.1-0.2c-0.7-0.7-1.4-0.6-2.1-0.1c-1.5-0.1-2.9-0.2-4.4-0.2
		c-0.1-0.7,0.3-1.1,0.5-1.6c2.6-4.6,5.1-9.1,7.7-13.7c1.3-0.2,2.5,0,3.7,0.1c0.4,0.5,0.8,0.5,1.2,0.1c1.5,0.1,2.9,0.2,4.4,0.2
		c0.4,0.6,0.8,0.6,1.2,0.1c1.7,0.1,3.5,0.2,5.2,0.3c0.5,0.6,1,0.5,1.5,0.1c1.9,0.1,3.9,0.2,5.8,0.2c0.6,0.6,1.2,0.6,1.8,0.1
		c1.3,0.1,2.6,0.1,4,0.2c0.6,0,1.1,0.2,0.9,1.1c-0.5,0.3-0.5,0.6-0.1,1c-0.1,0.4-0.1,0.8-0.2,1.3c-0.5,0.3-0.5,0.6-0.1,1
		c-0.1,0.4-0.1,0.8-0.2,1.3c-0.5,0.3-0.5,0.6-0.1,1c-0.1,0.4-0.1,0.8-0.2,1.3c-0.5,0.3-0.5,0.6-0.1,1c0,0.3-0.1,0.6-0.1,0.9
		c-0.5,0.3-0.5,0.6-0.2,1c0,0.3-0.1,0.6-0.1,0.9c-0.5,0.3-0.5,0.6-0.1,1c-0.1,0.4-0.1,0.8-0.2,1.3c-0.4,0.3-0.5,0.6-0.1,1
		c0,0.9-0.3,1.3-1.2,1.1c-0.2-0.4-0.4-0.4-0.6-0.1c-1-0.1-1.9-0.1-2.9-0.2c-0.5-0.6-1-0.6-1.5-0.1c-0.8-0.1-1.5-0.1-2.3-0.2
		c-0.5-0.7-1.2-0.6-1.8-0.2c-1-0.1-1.9-0.1-2.9-0.2c-0.5-0.7-1-0.6-1.5-0.1c-1.3-0.1-2.5-0.2-3.8-0.2c-0.4-0.5-0.8-0.5-1.2-0.1
		c-1.6-0.1-3.1-0.2-4.7-0.3C95.1,125.5,94.7,125.5,94.3,126z"/>
	<path class="st3" d="M139.7,123.8c1.3-1.2,2.5-2.5,3.9-3.6c4.6-3.8,10-5.8,15.5-7.2c6.2-1.6,12.7-2,18.9-3.9
		c2.5-0.8,4.9-1.7,7.3-2.9c0.3-0.2,0.6-0.3,0.7-0.8c0.9,0.2,1.9,0.7,2.8,0.7c0.3,0,0.7,0,0.8,0.5c0.1,0.5-0.4,0.6-0.6,0.8
		c-4.8,4.1-10.1,7.2-15.8,9.5c-6,2.4-12.2,4.4-18.5,5.3c-3.7,0.5-5.7,3.2-6.7,6.8c-1.3,4.9-2.3,9.8-3.5,14.8
		c-0.1,0.3-0.1,0.5-0.2,0.8c-0.4,2.4-1,4.5-3.8,4.5c-0.6,0-1.1,0.3-1.7,0.6c-1.5,0.8-1.6,0.8-1.5-1.2c0.1-7.4,1-14.7,2.3-21.9
		C139.8,125.6,139.9,124.7,139.7,123.8z"/>
	<path class="st3" d="M59.3,26.3c1.2-0.1,2.1-0.8,3.1-1.3c1.6-0.8,3.2-1.2,4.9-1.6c1-0.2,1.6,0.1,1.7,1.3c0,0.4,0,0.8,0.2,1.1
		c0.4,1.1-0.1,1.5-1,1.6c-3.5,0.5-6.6,2.1-9.6,4.2c-1.1,0.8-1.3,1.8-0.9,2.9c0.5,1.2,1.5,1.6,2.7,1.2c0.6-0.2,1.1-0.6,1.7-1
		c2.1-1.5,4.5-2.4,7-2.9c0.7-0.2,1.1,0,1.2,0.9c0.3,2.4,0.7,4.7,1,7c0.1,1.1-0.7,0.7-1.1,0.7c-3.5,0.1-7,0.6-10.4,1.6
		c-0.3,0.1-0.7,0.2-1,0.3c-0.7,0.4-1,0.2-1.2-0.7c-0.3-1.4-0.8-2.6-1.5-3.9c-2.2-3.9-5.7-4.8-9.4-5.2c-1-0.1-1.9-0.3-2.8-0.8
		c-1.8-1-1.9-2.6-0.4-4.1c1.5-1.3,3.3-1.9,5-2.6c1.7-0.7,3.4-1.2,4.9-2c2.1-1.1,3.3-2.9,3.4-5.6c0-2.2-0.2-4.4-0.5-6.6
		c-0.2-2.1,0-4,1.2-5.7c0.7-1,1.6-1.2,2.6-0.5c1.8,1.2,3.1,3,4.1,5c1.3,2.5,2.3,5.1,3.1,7.9c0.3,1,0.1,1.3-0.8,1.3
		c-3,0.3-5.7,1.5-8.3,3.1c-0.9,0.5-1.7,1.2-1.4,2.4C57.1,25.8,58.1,26.4,59.3,26.3z"/>
	<path class="st3" d="M149.7,17c0,1,0,2,0,2.9c-0.2,3.9,1.5,6.4,4.5,8c1.5,0.8,3.2,1.4,4.7,2.2c0.6,0.3,1.5,0.6,1.5,1.3
		c0,0.9-1,1.1-1.6,1.3c-1.8,0.7-3.8,1.2-5.5,2.1c-4.2,2-7.3,5.3-8.8,10.2c-0.1,0.5-0.4,0.9-0.5,1.4c-0.2,0.9-0.7,1.1-1.4,0.7
		c-3.3-1.5-6.6-2.6-10.1-3c-0.6-0.1-0.8-0.5-0.6-1.1c0.5-1.7,0.9-3.4,1.3-5.2c0.2-0.9,0.7-1.1,1.5-1.1c2.6,0,5.2,0,7.7,0.6
		c1.3,0.3,2.7-0.7,2.8-1.9c0.2-1.3-0.7-2.4-2.2-2.6c-2.3-0.3-4.6-0.8-7-0.6c-1,0.1-1.1-0.4-0.9-1.4c0.8-3,2.3-3.9,5.8-3.4
		c1.2,0.2,2.4,0.4,3.6,0.6c1.2,0.1,2.2-0.2,2.5-1.6c0.3-1.5-0.5-2.3-1.7-2.7c-2-0.7-4-0.7-6.1-0.6c-1.1,0-1.5-0.2-0.9-1.4
		c1.7-3.7,3.4-7.3,6.2-10.2c0.1-0.1,0.3-0.3,0.4-0.4c1.1-0.9,2.2-2.1,3.7-1.3c1.3,0.7,1.4,2.2,1.4,3.7
		C149.8,14.5,149.8,15.8,149.7,17C149.7,17,149.7,17,149.7,17z"/>
	<path class="st3" d="M8,104.1c0.1,0.9,0.9,1,1.4,1.2c3.7,1.9,7.5,1.6,11.4,1.1c5.3-0.6,10.6-1.8,15.8-3.3c2.5-0.7,5-1.8,7.6-2.4
		c1.4-0.3,2.5,0.3,3.7,0.6c-0.7,1.4-0.3,2.8,0.1,4.1c0.6,2.4,0.7,4.8,1,7.2c0.1,1-0.2,1.5-1,1.9c-2.5,1-5,1.8-7.7,2
		c-9,0.5-17.7-1.2-26-5.1c-2.4-1.1-4.6-2.7-6.5-4.6C6.1,105.2,6.1,105.1,8,104.1z"/>
	<path class="st4" d="M92,110.1c-2.6,4.6-5.1,9.1-7.7,13.7c-0.3,0.5-0.7,1-0.5,1.6c-3.8,0-7.5,0-11.3,0c-0.8,0-1.1-0.3-1.2-1.2
		c-0.4-4.7-0.9-9.4-1.3-14.1c-0.1-0.7,0-1.1,0.7-1c7,0.6,14.1,0.3,21.1,1C91.9,110,91.9,110.1,92,110.1z"/>
	<path class="st5" d="M99,105.2c-0.1-0.5,0.2-0.8,0.6-1c4.1-2.1,8.3-4.1,13-3.7c1.7,0.1,3.4,0.4,5.1,0.6c2.1,0.3,3.9,1.4,4.9,3.6
		c0.2,1-0.4,1-1,1.1c-3.4,0.6-6.7,0-10.1-0.1c-0.3-0.5-0.6-0.5-0.9,0c-2-0.1-4.1-0.2-6.1-0.3c-0.4-0.5-0.8-0.6-1.2-0.1
		C101.7,105.4,100.4,105.3,99,105.2z"/>
	<path class="st4" d="M80.5,130.6c-1.5,3-2.9,6.1-4.4,9.1c-0.3,0.5-0.6,1-0.7,1.6c-1.6-0.8-2.5-2.3-2.8-4.3
		c-0.2-1.8-0.4-3.5-0.6-5.3c-0.1-0.8,0.1-1.3,0.9-1.3C75.5,130.5,78,130.3,80.5,130.6z"/>
	<path class="st3" d="M141,154.8c-0.5,1-0.9,2-1.4,3c-0.1,0.2-0.4,0-0.5-0.3c-0.2-0.4-0.4-0.9-0.5-1.3c-0.1-0.5-0.7-1,0-1.4
		c0.7-0.4,1.5-0.5,2.3-0.3C140.8,154.4,140.9,154.6,141,154.8z"/>
	<path class="st4" d="M94.6,131.2c-0.9,0.4-1.8,0.6-2.7-0.1C92.8,130.8,93.7,130.8,94.6,131.2z"/>
	<path class="st4" d="M100.2,131.5c-0.8,0.4-1.6,0.5-2.4-0.1C98.6,131.2,99.4,131.2,100.2,131.5z"/>
	<path class="st4" d="M88.1,125.6c0.7-0.5,1.4-0.6,2.1,0.1C89.5,126,88.8,126,88.1,125.6z"/>
	<path class="st4" d="M109.6,126.9c0.6-0.4,1.2-0.6,1.8,0.2C110.7,127.3,110.1,127.3,109.6,126.9z"/>
	<path class="st4" d="M87.8,130.9c-0.6,0.4-1.2,0.5-1.8-0.1C86.7,130.5,87.2,130.5,87.8,130.9z"/>
	<path class="st4" d="M105.1,131.8c-0.6,0.4-1.2,0.5-1.8-0.1C104,131.5,104.6,131.5,105.1,131.8z"/>
	<path class="st4" d="M116.9,111.3c-0.6,0.5-1.2,0.5-1.8-0.1C115.7,111,116.3,111,116.9,111.3z"/>
	<path class="st4" d="M105.1,126.6c0.5-0.5,1-0.5,1.5,0.1C106.1,126.9,105.6,127,105.1,126.6z"/>
	<path class="st4" d="M118.5,132.9c-0.6,0.2-1.2,0.5-1.7-0.2C117.4,132.5,118,132.5,118.5,132.9z"/>
	<path class="st4" d="M113.7,127.3c0.5-0.5,1-0.5,1.5,0.1C114.7,127.6,114.1,127.6,113.7,127.3z"/>
	<path class="st4" d="M109.3,110.9c-0.5,0.5-1,0.5-1.5-0.1C108.3,110.6,108.8,110.6,109.3,110.9z"/>
	<path class="st4" d="M113.9,132.5c-0.5,0.4-1,0.5-1.5-0.1C113,132.2,113.5,132.2,113.9,132.5z"/>
	<path class="st4" d="M103.1,105.5c0.4-0.5,0.8-0.5,1.2,0.1C103.9,105.8,103.5,105.8,103.1,105.5z"/>
	<path class="st4" d="M96.9,110.3c-0.4,0.5-0.8,0.5-1.2-0.1C96.1,110,96.5,110,96.9,110.3z"/>
	<path class="st4" d="M102.5,110.6c-0.4,0.5-0.8,0.5-1.2-0.1C101.7,110.3,102.1,110.3,102.5,110.6z"/>
	<path class="st4" d="M94.3,126c0.4-0.5,0.8-0.5,1.2,0.1C95.1,126.3,94.7,126.3,94.3,126z"/>
	<path class="st4" d="M100.2,126.3c0.4-0.5,0.8-0.5,1.2,0.1C101,126.6,100.6,126.6,100.2,126.3z"/>
	<path class="st4" d="M110.4,105.8c0.3-0.5,0.6-0.4,0.9,0C111,106.1,110.7,106.1,110.4,105.8z"/>
	<path class="st4" d="M119.8,126.6c-0.4-0.4-0.3-0.7,0.1-1C120.1,126,120.1,126.3,119.8,126.6z"/>
	<path class="st4" d="M121.6,113.6c-0.4-0.4-0.3-0.7,0.1-1C121.9,112.9,121.9,113.3,121.6,113.6z"/>
	<path class="st4" d="M120.1,124.3c-0.4-0.4-0.3-0.7,0.1-1C120.4,123.7,120.4,124,120.1,124.3z"/>
	<path class="st4" d="M109.5,132.2c-0.3,0.4-0.6,0.4-0.9-0.1C109,131.8,109.3,131.9,109.5,132.2z"/>
	<path class="st4" d="M120.4,122.4c-0.4-0.4-0.3-0.8,0.2-1C120.7,121.7,120.7,122.1,120.4,122.4z"/>
	<path class="st4" d="M120.7,120.4c-0.4-0.4-0.3-0.7,0.1-1C121,119.8,121,120.1,120.7,120.4z"/>
	<path class="st4" d="M121,118.1c-0.4-0.4-0.3-0.7,0.1-1C121.3,117.5,121.3,117.8,121,118.1z"/>
	<path class="st4" d="M121.3,115.9c-0.4-0.4-0.3-0.7,0.1-1C121.6,115.2,121.6,115.6,121.3,115.9z"/>
	<path class="st4" d="M118.1,127.6c0.2-0.4,0.4-0.3,0.6,0.1C118.4,127.9,118.2,127.9,118.1,127.6z"/>
	<path class="st4" d="M118.3,135.4c-0.4-0.3-0.2-0.5,0.1-0.7C118.6,135,118.6,135.2,118.3,135.4z"/>
	<path class="st4" d="M118,136.9c-0.2-0.4-0.2-0.7,0.2-0.9C118.3,136.4,118.2,136.7,118,136.9z"/>
	<path class="st0" d="M61,159.9c2.9,0.3,5.8,1.2,7.6,4.2c1.4,2.3,0.9,4.7-1.1,6.3c-2.3,1.9-9.2,1.8-11.6-1.1
		c-2.8-3.4-2.1-7.4,1.9-8.9C58.8,160.1,59.8,160,61,159.9z M62.2,167.2c0.4,0,0.9,0,1.3,0c0.4,0,0.9,0,1-0.4
		c0.2-0.6-0.3-0.9-0.6-1.2c-1.3-1-2.7-1.3-4.2-0.9c-0.9,0.2-0.9,0.7-0.4,1.4C60,167.2,61.1,167.1,62.2,167.2z"/>
	<path class="st0" d="M121.3,174.8c-1.8,0-4.2-2-4.7-4c-0.5-1.7,0.2-3.6,2.1-4.9c2.5-1.7,5.1-2.3,8-1.1c3.3,1.4,3.8,4.8,1.1,7.4
		C126.2,173.8,123.7,174.8,121.3,174.8z M124.4,169.1c0-0.3-0.2-0.5-0.4-0.5c-0.9-0.1-1.6,0.2-2.4,0.6c-0.2,0.1-0.3,0.4-0.1,0.7
		c0.3,0.5,0.8,0.4,1.2,0.2C123.4,169.9,124.1,169.7,124.4,169.1z"/>
	<path class="st0" d="M74.9,69.4c-0.1,2.1-0.9,4.2-2.5,5.9c-1.9,1.9-4.3,1.9-6.2,0.1c-2.3-2.3-2.8-7.5-0.9-10.2
		c1.3-1.9,3.5-2.5,5.7-1.7C73.6,64.5,74.9,66.4,74.9,69.4z"/>
	<path class="st0" d="M126.1,72c0-5.6,4.4-8.9,8.4-6.6c1.4,0.8,2.2,2.2,2.4,3.9c0.3,3.4-0.6,6.4-2.8,8.7c-2.3,2.3-5.3,1.7-6.9-1.2
		C126.3,75.2,126.1,73.5,126.1,72z"/>
	<path class="st2" d="M62.2,167.2c-1.1-0.1-2.2,0-2.9-1.1c-0.4-0.7-0.4-1.2,0.4-1.4c1.5-0.4,2.9,0,4.2,0.9c0.3,0.3,0.8,0.6,0.6,1.2
		c-0.2,0.5-0.7,0.4-1,0.4C63,167.2,62.6,167.2,62.2,167.2z"/>
	<path class="st4" d="M124.4,169.1c-0.4,0.7-1,0.8-1.7,1.1c-0.4,0.2-0.9,0.2-1.2-0.2c-0.2-0.3-0.1-0.5,0.1-0.7
		c0.7-0.4,1.5-0.7,2.4-0.6C124.3,168.6,124.4,168.7,124.4,169.1z"/>
</g>
</svg>

